<svg width="512" height="512" viewBox="0 0 512 512" fill="none" xmlns="http://www.w3.org/2000/svg">
<rect width="512" height="512" fill="white"/>
<path d="M146.411 212C156.046 212 164.466 213.864 171.67 217.593C178.962 221.322 184.561 226.501 188.467 233.13C192.373 239.759 194.326 247.299 194.326 255.751C194.326 264.121 192.373 271.661 188.467 278.373C184.561 285.085 178.962 290.388 171.67 294.282C164.466 298.094 156.046 300 146.411 300H116C111.582 300 108 296.418 108 292V220C108 215.582 111.582 212 116 212H146.411ZM143.806 275.39C150.317 275.39 155.481 273.691 159.301 270.294C163.12 266.896 165.03 262.049 165.03 255.751C165.03 249.454 163.12 244.606 159.301 241.209C155.481 237.812 150.317 236.113 143.806 236.113V236.113C139.995 236.113 136.906 239.203 136.906 243.014V268.489C136.906 272.3 139.995 275.39 143.806 275.39V275.39Z" fill="#D9582E"/>
<path d="M307.568 212C311.987 212 315.568 215.582 315.568 220V292C315.568 296.418 311.987 300 307.568 300H294.793C290.375 300 286.793 296.418 286.793 292V256.124L274.392 294.462C273.324 297.763 270.25 300 266.78 300H253.682C250.212 300 247.138 297.763 246.07 294.462L233.669 256.124V292C233.669 296.418 230.088 300 225.669 300H212.764C208.345 300 204.764 296.418 204.764 292V220C204.764 215.582 208.345 212 212.764 212H234.685C237.995 212 240.964 214.039 242.152 217.129L260.492 264.825L278.337 217.193C279.507 214.07 282.493 212 285.829 212H307.568Z" fill="#D9582E"/>
<path d="M404 242.203C404 247.755 402.655 252.81 399.964 257.367C397.273 261.842 393.28 265.405 387.985 268.057C382.777 270.708 376.44 272.034 368.975 272.034H357.517V292C357.517 296.418 353.935 300 349.517 300H336.611C332.193 300 328.611 296.418 328.611 292V220C328.611 215.582 332.193 212 336.611 212H368.975C380.259 212 388.896 214.734 394.886 220.203C400.962 225.672 404 233.006 404 242.203ZM365.72 250.282C371.709 250.282 374.704 247.589 374.704 242.203C374.704 236.817 371.709 234.124 365.72 234.124H358.517C357.964 234.124 357.517 234.572 357.517 235.124V249.282C357.517 249.835 357.964 250.282 358.517 250.282H365.72Z" fill="#D9582E"/>
</svg>
